<svg width="223" height="76" viewBox="0 0 223 76" fill="none" xmlns="http://www.w3.org/2000/svg">
<path d="M26.3905 24.3023C26.3905 25.6279 25.9507 26.5116 25.071 28.279C22.432 31.8139 18.4734 34.0232 12.3156 34.0232H11.4359C10.9961 34.0232 10.5562 34.0232 10.5562 34.0232V48.6046H0V12.8139C0 10.1628 1.75937 7.95346 4.83826 6.18602C7.03748 4.86044 10.1164 4.41858 13.1953 4.41858C16.2742 4.41858 18.9132 4.86044 21.5523 6.18602C24.6312 7.95346 25.9507 10.1628 25.9507 12.8139V24.3023H26.3905ZM16.714 15.0232C16.714 11.4883 15.3945 9.7209 13.1953 9.7209C10.9961 9.7209 10.1164 10.6046 10.1164 12.3721V28.7209C14.075 28.7209 16.2742 27.3953 16.2742 24.7442V15.0232H16.714Z" fill="#042B30"/>
<path d="M55.4201 48.6046H45.3038V33.5814C45.3038 31.3721 43.5444 30.0465 40.4655 30.0465H39.146V48.6046H29.0296V12.8139C29.0296 9.7209 30.789 7.5116 33.8679 6.18602C36.0671 4.86044 39.146 4.41858 42.2249 4.41858C45.3038 4.41858 48.3827 4.86044 50.5819 6.18602C53.6608 7.95346 55.4201 10.1628 55.4201 12.8139V20.3256C55.4201 24.3023 52.7811 26.5116 47.503 26.9535C52.7811 27.3953 55.4201 29.6046 55.4201 33.1395V48.6046ZM45.3038 20.7674V15.0232C45.3038 11.4883 44.4241 9.7209 42.2249 9.7209C40.0257 9.7209 39.146 10.6046 39.146 12.3721V25.186C43.5444 25.186 45.3038 23.4186 45.3038 20.7674Z" fill="#042B30"/>
<path d="M69.4951 48.6046H59.3787V4.41858H69.4951V48.6046Z" fill="#042B30"/>
<path d="M116.118 48.6046H105.562V12.8139C105.562 11.0465 104.682 10.1628 102.483 10.1628C100.724 10.1628 99.4043 11.0465 99.4043 13.2558V48.6046H89.288V12.3721C89.288 11.4883 88.8481 11.0465 88.4083 10.6046C87.9684 10.1628 87.0887 9.7209 86.2091 9.7209C84.0099 9.7209 83.1302 10.6046 83.1302 12.3721V48.6046H73.0138V13.2558C73.0138 10.6046 74.7732 8.39532 77.8521 6.62788C80.4911 5.3023 83.1302 4.41858 86.2091 4.41858C89.7278 4.41858 92.3669 5.3023 94.5661 6.62788C96.7653 5.3023 99.8442 4.41858 103.363 4.41858C106.442 4.41858 109.081 5.3023 111.72 6.62788C114.799 8.39532 116.118 10.6046 116.118 13.2558V48.6046Z" fill="#042B30"/>
<path d="M142.509 48.6046H120.077V4.41858H142.509V10.1628H130.193V22.093H142.509V27.8372H130.193V42.4186H142.509V48.6046Z" fill="#042B30"/>
<path d="M0 55.2323H1.31953V75.5579H0V55.2323Z" fill="white"/>
<path d="M14.9547 55.2323H16.714L33.428 73.7904V55.2323H35.1874V75.5579H32.9882L16.2742 56.9997V75.5579H14.9547V55.2323Z" fill="white"/>
<path d="M48.3826 55.2323H64.6568V56.5579H49.7022V64.5114H63.7771V65.8369H49.7022V75.9997H48.3826V55.2323Z" fill="white"/>
<path d="M87.5286 54.7905C96.7653 54.7905 99.4043 61.4184 99.4043 65.3952C99.4043 69.3719 96.7653 75.9998 87.5286 75.9998C78.2919 75.9998 75.6528 69.3719 75.6528 65.3952C75.6528 61.4184 78.2919 54.7905 87.5286 54.7905ZM87.5286 75.1161C94.5661 75.1161 98.0848 70.6975 98.0848 65.3952C98.0848 60.5347 94.5661 55.6743 87.5286 55.6743C80.9309 55.6743 76.9724 60.0929 76.9724 65.3952C76.9724 70.2557 80.9309 75.1161 87.5286 75.1161Z" fill="white"/>
<path d="M112.6 68.9301C112.6 72.9068 115.239 75.1161 121.396 75.1161C127.114 75.1161 128.874 72.9068 128.874 70.6975C128.874 68.4882 127.554 67.1626 122.716 66.2789L118.318 65.3952C113.479 64.5115 111.28 63.1859 111.28 60.0929C111.28 56.9998 114.359 54.7905 119.637 54.7905C125.355 54.7905 128.874 56.558 129.314 60.9766H127.994C127.994 58.7673 126.235 55.6743 120.517 55.6743C114.799 55.6743 113.039 57.4417 113.039 59.651C113.039 61.8603 113.919 62.744 118.318 63.6277L123.156 64.5115C127.554 65.3952 130.193 66.7208 130.193 69.8138C130.193 72.465 127.994 75.558 120.957 75.558C113.479 75.558 110.84 72.465 110.84 68.4882H112.6V68.9301Z" fill="white"/>
<path d="M140.31 55.2323H142.509L151.746 65.8369L160.982 55.2323H162.742L152.185 67.1625V75.5579H150.866V67.1625L140.31 55.2323Z" fill="white"/>
<path d="M173.738 68.9301C173.738 72.9068 176.377 75.1161 182.535 75.1161C188.252 75.1161 190.012 72.9068 190.012 70.6975C190.012 68.4882 188.692 67.1626 183.854 66.2789L179.456 65.3952C174.617 64.5115 172.418 63.1859 172.418 60.0929C172.418 56.9998 175.497 54.7905 180.775 54.7905C186.493 54.7905 190.012 56.558 190.452 60.9766H189.132C189.132 58.7673 187.373 55.6743 181.655 55.6743C175.937 55.6743 174.178 57.4417 174.178 59.651C174.178 61.8603 175.057 62.744 179.456 63.6277L184.294 64.5115C188.692 65.3952 191.331 66.7208 191.331 69.8138C191.331 72.465 189.132 75.558 182.095 75.558C174.617 75.558 171.978 72.465 171.978 68.4882H173.738V68.9301Z" fill="white"/>
<path d="M190.891 48.6046L146.907 4.41858H161.862L190.891 33.5814V48.6046Z" fill="#F05025"/>
<path d="M159.663 33.1394L153.065 25.6278L144.708 34.0231L156.584 44.6278L160.982 48.6045C160.982 48.6045 179.895 8.83706 218.162 1.32543C219.921 0.883565 222.56 0.441704 222.56 0.441704C222.56 0.441704 186.933 -0.00015679 159.663 33.1394Z" fill="#F05025"/>
</svg>
