<svg width="1920" height="5331" viewBox="0 0 1920 5331" fill="none" xmlns="http://www.w3.org/2000/svg">
<path d="M956.5 3729.5C1400.9 3729.5 1790.67 3448.5 1930 3308L1930 2430.5C1835.17 2776.67 1507.7 3469 956.5 3469C405.3 3469 89.1667 2747 0.000117453 2386L7.99918e-05 2814.5C133.667 3119.5 512.1 3729.5 956.5 3729.5Z" fill="#F4F4FA"/>
<path d="M973.5 31C529.1 31 139.333 312 0 452.5V1330C94.8333 983.833 422.3 291.5 973.5 291.5C1524.7 291.5 1840.83 1013.5 1930 1374.5V946C1796.33 641 1417.9 31 973.5 31Z" fill="#F4F4FA"/>
<path d="M1266.88 1852.5C1725.28 1752.5 1899.55 1475.83 1929.38 1350V2469.97C1936.26 2519.88 1934.92 2567.37 1929.38 2605V2469.97C1909.58 2326.23 1821.65 2162.33 1569.88 2155.5C1145.88 2144 693.883 1977.5 1266.88 1852.5Z" fill="#F4F4FA"/>
<ellipse cx="470" cy="2025" rx="197.5" ry="91" fill="#F4F4FA"/>
<circle cx="1564.5" cy="130" r="130" fill="#F4F4FA"/>
<circle cx="355.5" cy="4211" r="294" fill="#F4F4FA"/>
<circle cx="1560.5" cy="5148" r="183" fill="#F4F4FA"/>
</svg>
