<svg width="1559" height="1350" viewBox="0 0 1559 1350" fill="none" xmlns="http://www.w3.org/2000/svg">
<path d="M1291.48 738.733C1322.34 766.244 1342.6 803.69 1348.73 844.574L1370.42 989.03C1384.76 1084.51 1319.94 1173.86 1224.73 1189.86L856.686 1251.73C786.846 1263.47 716.731 1232.45 678.442 1172.87L628.608 1095.33C612.853 1070.81 591.289 1050.57 565.829 1036.39L341.058 911.203C285.319 880.16 250.601 821.522 250.184 757.724L248.047 430.231C247.965 417.749 246.564 405.311 243.865 393.123L221.708 293.049C193.683 166.476 306.752 53.7107 433.249 82.0749L650.616 130.815C666.409 134.356 682.613 135.714 698.775 134.852L738.226 132.746C809.184 128.96 875.528 167.975 906.708 231.828L1033.16 490.777C1043.25 511.437 1057.26 529.933 1074.42 545.232L1291.48 738.733Z" fill="#F4F4FA"/>
</svg>
