<svg width="1558" height="1382" viewBox="0 0 1558 1382" fill="none" xmlns="http://www.w3.org/2000/svg">
<path d="M1290.6 738.733C1321.46 766.244 1341.72 803.69 1347.86 844.575L1369.55 989.03C1383.88 1084.51 1319.06 1173.86 1223.85 1189.86L855.81 1251.73C785.97 1263.47 715.855 1232.45 677.566 1172.87L627.732 1095.33C611.977 1070.81 590.412 1050.57 564.953 1036.39L340.182 911.203C284.443 880.16 249.724 821.523 249.308 757.724L247.17 430.231C247.089 417.749 245.687 405.311 242.989 393.124L220.832 293.05C192.807 166.476 305.875 53.711 432.373 82.0751L649.74 130.815C665.533 134.356 681.737 135.714 697.899 134.852L737.35 132.746C808.308 128.96 874.652 167.975 905.832 231.828L1032.28 490.778C1042.37 511.437 1056.39 529.933 1073.55 545.232L1290.6 738.733Z" fill="#F4F4FA"/>
</svg>
