<svg width="1630" height="1379" viewBox="0 0 1630 1379" fill="none" xmlns="http://www.w3.org/2000/svg">
<path d="M1023.14 60.0456C1059.06 39.5643 1101.01 32.3005 1141.71 39.5142L1285.55 65.0022C1380.61 81.8481 1444.64 171.768 1429.46 267.113L1370.79 635.677C1359.66 705.616 1307.91 762.186 1239.23 779.487L1149.85 802.006C1121.59 809.125 1095.53 823.111 1073.97 842.723L883.672 1015.87C836.482 1058.8 769.836 1073.02 709.232 1053.08L398.141 950.718C386.284 946.817 374.047 944.181 361.636 942.854L259.719 931.957C130.815 918.175 59.972 775.06 127.178 664.202L242.66 473.708C251.051 459.868 257.503 444.942 261.837 429.348L272.417 391.284C291.445 322.82 349.573 272.373 420.034 263.172L705.782 225.858C728.579 222.881 750.578 215.491 770.549 204.102L1023.14 60.0456Z" fill="#F4F4FA"/>
</svg>
